PathFileType	4	(X/Y/Z)	C:/Users/beibeiliu/ov580/test_trc\sequence.29_training_dense_left.trc
DataRate	CameraRate	NumFrames	NumMarkers	Units	OrigDataRate	OrigDataStartFrame	OrigNumFrames
120	120	24	19	mm	120	101	200
Frame#	Time	ThumbCMC			ThumbMCP			ThumbIP			ThumbTip			IndexMCP			IndexPIP			IndexTip			MiddleMCP			MiddlePIP			MiddleTip			RingMCP			RingPIP			RingTip			PinkyMCP			PinkyPIP			PinkyTip			BackHand1			BackHand2			BackHand3	
		X0	Y0	Z0	X1	Y1	Z1	X2	Y2	Z2	X3	Y3	Z3	X4	Y4	Z4	X5	Y5	Z5	X6	Y6	Z6	X7	Y7	Z7	X8	Y8	Z8	X9	Y9	Z9	X10	Y10	Z10	X11	Y11	Z11	X12	Y12	Z12	X13	Y13	Z13	X14	Y14	Z14	X15	Y15	Z15	X16	Y16	Z16	X17	Y17	Z17	X18	Y18	Z18	
100	0.833333	-156.947	9.15901	130.396	-126.002	9.41028	116.539	-107.369	11.8404	101.273	-90.6498	12.8777	84.913	-152.243	20.494	55.0561	-140.486	18.7454	31.7496	-126.144	10.2329	5.64301	-166.577	3.83274	38.3295	-153.964	0.201603	16.9424	-133.168	-8.86244	-6.72061	-177.903	-12.7118	42.2456	-165.683	-17.3922	19.0574	-148.439	-26.6265	-4.8658	-189.427	-34.7675	49.1068	-178.272	-38.6993	28.4582	-167.195	-47.9444	6.28409	-202.464	-9.4957	86.7087	-211.528	-9.56284	118.176	-186.028	14.8678	109.881	
101	0.841667	-153.673	12.3467	124.39	-129.257	6.82099	114.474	-109.214	9.94679	96.9228	-91.8268	11.9674	81.6441	-151.046	21.8085	53.0121	-138.497	20.601	31.1624	-125.307	10.2485	3.23432	-166.266	5.20856	41.489	-151.893	-0.87287	12.8938	-136.559	-10.7614	-7.60818	-176.65	-11.0374	39.3988	-164.79	-19.1735	13.5384	-148.892	-25.8873	-5.48251	-188.926	-32.7766	47.6656	-177.817	-36.776	28.1282	-166.086	-48.3074	3.48124	-202.261	-7.21716	85.8908	-210.951	-10.3657	111.442	-185.776	18.0625	104.703	
102	0.85	-152.483	16.4213	123.153	-125.128	12.7605	110.953	-106.868	13.1734	95.7044	-89.5916	14.1549	79.4278	-148.499	27.0785	48.9145	-135.93	24.5205	27.3581	-125.756	14.4814	5.31399	-166.007	7.75849	36.4218	-149.827	6.75161	13.4672	-134.075	-5.91606	-9.33147	-177.028	-10.664	37.7472	-162.483	-14.2401	13.0074	-147.803	-24.0501	-7.86538	-185.95	-28.0762	47.9047	-174.196	-33.8257	23.8475	-164.617	-46.2689	1.5572	-201.004	-5.53094	82.7752	-208.158	-4.11855	110.167	-186.827	18.8865	102.236	
103	0.858333	-152.732	13.9117	122.623	-125.991	12.039	112.353	-103.292	15.4259	97.2636	-86.9921	16.4511	79.7043	-149.12	25.5875	49.509	-134.937	23.6392	25.8881	-120.682	15.79	3.80166	-163.146	9.09697	37.489	-148.609	4.26871	11.5485	-132.8	-3.91662	-7.12673	-172.751	-7.16717	37.8581	-160.815	-12.7564	14.5393	-143.463	-23.0653	-8.02558	-183.978	-26.9796	45.4761	-171.745	-32.766	23.5437	-161.089	-42.8305	0.15357	-197.535	-5.26064	82.8012	-206.752	-4.37712	109.729	-184.682	18.3869	102.813	
104	0.866667	-151.263	13.0595	126.865	-123.552	10.5051	112.041	-100.721	14.3061	97.9486	-83.9601	16.1546	78.6588	-146.043	25.1473	51.6352	-132.418	21.0506	26.4268	-119.488	12.3304	3.41254	-161.958	6.40047	39.1828	-147.834	3.69375	14.7588	-127.976	-7.05128	-9.02579	-171.383	-9.28535	36.241	-160.445	-13.156	17.2634	-141.354	-22.1069	-5.44551	-182.356	-28.2165	50.7087	-171.478	-33.3183	26.4575	-162.702	-44.0737	3.31601	-197.854	-5.97672	83.9047	-209.821	-7.00208	114.67	-180.399	18.526	108.234	
105	0.875	-150.331	12.3076	125.311	-122.767	8.81657	115.925	-103.391	11.0522	96.8942	-87.637	12.7209	85.3426	-143.995	25.0641	54.9887	-134.583	20.3725	31.5338	-117.97	13.9786	6.04537	-158.854	9.73425	42.5933	-147.714	4.0981	18.348	-129.039	-5.5422	-5.80085	-172.125	-9.28102	44.107	-157.758	-12.9818	16.6076	-140.86	-23.0013	-5.92853	-183.583	-31.0125	49.7294	-174.182	-35.3527	27.9384	-161.294	-40.4962	7.20081	-194.255	-3.96038	88.5988	-206.41	-5.29347	117.162	-180.782	15.0702	105.484	
106	0.883333	-147.607	14.4336	130.657	-120.818	9.82483	121.378	-101.363	11.4947	100.231	-84.4985	12.3051	81.9576	-144.004	24.3916	53.9012	-132.405	22.029	31.8721	-119.532	13.1753	9.91705	-159.991	7.66273	40.883	-147.367	2.39781	19.7879	-130.829	-9.61022	-5.44791	-172.021	-9.39153	45.4912	-161.352	-16.6782	20.4924	-145.176	-25.22	-0.6315	-181.445	-28.7676	49.1612	-175.627	-38.5975	28.8971	-161.234	-46.8138	4.82459	-195.243	-7.45497	88.2626	-206.83	-7.19406	119.807	-179.513	17.8781	111.716	
107	0.891667	-150.128	12.5609	131.999	-121.458	10.036	116.575	-103.558	11.3166	102.163	-85.3873	13.8361	84.959	-145.302	25.8619	58.83	-133.832	22.1341	33.8527	-121.334	12.2447	10.9667	-160.837	7.78708	42.273	-146.868	3.21385	18.8019	-133.24	-7.97324	-1.29623	-173.295	-10.2783	44.3668	-164.958	-17.1219	21.2312	-145.053	-22.3705	0.0768313	-184.093	-28.2901	51.6556	-174.938	-35.6706	32.1832	-162.126	-43.476	9.18501	-197.712	-6.7799	89.8793	-207.126	-6.31786	120.764	-181.818	19.8397	110.945	
108	0.9	-151.426	13.9005	132.562	-125.513	8.83237	117.401	-103.835	13.0492	103.012	-88.4866	13.1775	88.3129	-146.684	26.505	58.7355	-135.003	23.4146	34.3773	-118.957	16.098	11.0539	-161.143	11.1334	43.2289	-147.702	3.78032	18.2803	-130.648	-6.17339	-2.56906	-174.522	-9.12248	41.9859	-166.083	-15.2796	21.5935	-146.289	-22.8578	0.289062	-185.591	-28.4117	52.0334	-176.495	-36.569	29.3094	-165.53	-40.1275	10.2339	-197.794	-3.16171	91.2983	-208.265	-3.27083	118.955	-181.95	17.9188	110.512	
109	0.908333	-151.994	13.3582	129.76	-123.314	11.2034	120.707	-105.376	10.8077	103.391	-87.8992	12.9668	85.6324	-148.224	23.6447	56.5541	-136.631	22.8504	36.6971	-122.959	15.8521	14.8136	-163.732	9.24986	47.9479	-149.962	4.65618	19.5735	-135.606	-8.15234	-0.468499	-175.368	-8.388	44.572	-163.014	-15.2862	20.0347	-149.45	-23.9204	1.95973	-187.424	-29.1747	51.1366	-174.92	-33.4154	30.6876	-165.852	-43.4097	8.98035	-200.079	-5.38747	94.2809	-210.43	-2.87334	121.449	-184.184	19.6312	113.91	
110	0.916667	-152.377	14.0968	134.225	-122.676	10.9141	118.456	-105.506	10.9726	101.369	-91.3815	11.5522	84.2048	-149.243	24.1547	57.8111	-136.97	19.8926	32.6327	-124.807	14.8897	13.7033	-163.06	9.5607	44.7017	-151.754	2.58905	18.9148	-132.14	-8.15565	-4.66339	-175.311	-7.3953	45.4093	-165.009	-14.4997	21.7914	-149.419	-24.5233	0.451624	-186.177	-27.5898	52.9673	-176.102	-34.5766	32.126	-163.949	-42.4483	12.0083	-201.069	-6.29255	93.4944	-211.646	-5.14488	121.077	-184.322	20.3826	113.554	
111	0.925	-152.898	13.9357	132.402	-127.233	8.56756	122.62	-106.912	11.6957	104.835	-89.7292	13.3461	89.6556	-148.446	24.7855	58.0968	-138.025	21.7767	34.5379	-122.959	12.4081	11.4237	-162.516	11.2922	44.6139	-152.589	2.59056	21.1281	-134.036	-8.94279	-3.55373	-175.941	-9.6619	44.789	-165.988	-15.6982	21.1503	-148.79	-24.1857	1.27707	-188.944	-29.6614	55.3553	-179.272	-35.8007	32.8761	-164.309	-44.8028	7.58175	-197.481	-3.79072	89.264	-209.433	-3.42708	120.439	-186.063	17.2201	113.472	
112	0.933333	-151.973	16.0671	134.797	-125.203	10.483	120.262	-106.868	12.4718	103.839	-88.202	14.4801	88.5861	-147.844	26.7285	59.1515	-133.355	25.4962	33.4905	-120.476	14.763	9.91486	-165.586	8.37659	46.6439	-150.548	7.24192	22.8106	-134.293	-3.82804	-0.355834	-174.6	-7.62125	43.3054	-164.691	-13.3355	21.5056	-147.103	-20.7369	1.65041	-185.554	-27.4225	51.1108	-176.499	-32.5529	34.1843	-162.25	-41.8105	9.75435	-199.913	-4.70589	92.5628	-208.52	-2.79399	117.979	-185.269	20.2586	111.005	
113	0.941667	-150.248	16.3734	131.02	-126.879	10.2059	121.239	-105.058	12.5232	103.583	-87.8735	14.4212	87.0082	-147.855	25.7307	59.0666	-133.818	23.9406	31.5788	-120.41	15.7696	9.83436	-163.828	8.19737	41.1026	-150.114	7.28764	21.7052	-131.688	-7.18818	-5.14271	-173.603	-6.68155	42.006	-162.704	-12.5504	21.7786	-145.91	-22.9665	-2.44213	-186.533	-28.385	53.2896	-176.562	-36.1163	29.1221	-163.798	-44.4056	7.03428	-196.82	-1.05264	89.7418	-211.664	-4.86073	117.726	-184.577	20.1149	113.281	
114	0.95	-154.324	13.048	133.266	-125.118	9.08056	116.717	-105.265	10.96	99.7449	-90.7893	9.98338	86.1208	-147.886	25.3032	57.9595	-133.166	22.2676	32.977	-124.287	12.6993	12.2214	-161.494	9.87748	45.3996	-148.288	1.88889	17.6258	-133.169	-4.74501	-0.844637	-174.896	-10.5121	40.6698	-163.586	-15.5919	22.5208	-147.035	-23.8182	0.773255	-185.571	-28.4587	55.6939	-175.816	-34.6605	32.5539	-165.588	-46.2954	9.86311	-198.933	-6.21734	93.2288	-210.138	-7.42849	114.889	-187.261	17.403	111.908	
115	0.958333	-153.018	10.71	130.441	-127.304	6.12377	121.004	-103.096	9.15632	101.424	-89.8182	8.64427	85.8962	-147.326	23.1181	59.3174	-132.544	20.5826	32.5888	-121.679	13.712	13.993	-163.516	4.86314	43.8522	-149.401	-2.48158	17.4932	-132.736	-8.79269	-0.305575	-173.393	-10.7005	46.5837	-160.167	-18.1437	18.6268	-144.113	-26.6669	0.96565	-186.057	-31.1311	51.7954	-177.251	-40.2357	32.3059	-161.989	-45.6981	9.44142	-198.01	-8.08217	90.7706	-208.742	-6.4804	117.26	-181.753	17.9187	112.186	
116	0.966667	-153.255	10.0334	133.551	-123.966	6.55511	117.168	-104.419	8.43056	104.271	-90.2448	7.26319	83.5577	-147.386	20.2542	59.4846	-135.879	18.4349	35.5687	-120.982	11.8342	12.5861	-163.901	4.29592	45.7895	-148.258	0.700001	19.6049	-133.317	-12.6649	-2.47162	-174.454	-12.8074	45.8065	-159.909	-17.838	20.0945	-145.612	-28.4142	0.306057	-183.955	-30.305	52.0857	-177.923	-39.9294	32.3815	-164.546	-47.833	9.39414	-197.219	-4.3086	90.8631	-211.596	-8.33918	116.358	-184.137	17.5553	113.87	
117	0.975	-151.529	10.2108	133.307	-121.594	7.96395	118.596	-105.406	8.5115	103.439	-90.5772	8.13535	85.3942	-147.363	19.9931	55.7438	-131.954	19.5458	33.4041	-119.369	10.3732	11.2565	-163.475	4.03831	45.2661	-150.76	-2.70717	20.362	-134.536	-13.3657	-1.45375	-171.131	-11.1746	44.8197	-161.072	-16.9433	23.2043	-143.066	-28.9392	0.377067	-185.885	-33.5047	53.945	-175.056	-41.1222	31.3224	-161.456	-46.9847	8.55385	-196.517	-6.55249	88.178	-207.742	-7.02191	120.604	-184.82	14.0433	109.772	
118	0.983333	-151.725	8.26353	128.83	-122.176	6.34534	115.293	-105.51	6.88677	98.2854	-85.6747	9.34742	85.5571	-145.168	20.9969	55.8871	-130.356	18.3064	31.5811	-119.14	8.65764	11.5136	-160.377	4.35117	44.7828	-147.217	-0.363358	20.624	-130.25	-13.5551	-3.46322	-171.708	-15.5718	39.935	-161.217	-21.3639	20.0984	-140.987	-31.0878	-2.393	-183.443	-34.9012	52.621	-174.739	-42.544	32.0392	-159.244	-47.7395	9.39059	-198.505	-9.43019	89.3443	-208.797	-9.86894	118.124	-182.013	14.8664	113.021	
119	0.991667	-149.76	7.45879	127.618	-119.7	6.75711	116.054	-100.57	7.63238	98.2665	-84.7245	6.72611	82.7694	-143.082	19.5326	58.5362	-129.635	17.4491	33.9445	-115.66	7.53554	10.4652	-159.851	1.75387	41.7261	-144.229	-3.70186	15.907	-125.925	-15.0729	-6.21105	-169.73	-15.4052	40.8059	-155.981	-20.4646	19.2909	-140.621	-32.2841	-0.256059	-180.026	-35.4216	51.0547	-170.605	-44.8493	30.5084	-154.051	-49.8507	9.49244	-195.495	-9.8876	85.2144	-206.873	-11.9938	114.485	-183.606	12.3145	110.727	
120	1	-147.306	10.0243	130.705	-122.567	3.79295	118.177	-100.957	5.25825	99.9532	-86.0151	5.7854	86.5609	-142.5	18.2424	53.6856	-129.795	15.0207	33.4057	-115.229	8.99724	11.4766	-159.208	0.4347	44.7328	-142.38	-3.98279	17.4561	-126.548	-15.9617	-2.54238	-167.916	-14.5652	45.6598	-156.096	-21.713	21.5436	-137.342	-34.2031	-2.10375	-176.087	-34.4283	49.7101	-165.259	-42.547	28.5858	-156.289	-50.7493	11.3341	-195.191	-11.5335	89.4278	-205.006	-12.7058	115.772	-177.371	14.9937	107.843	
121	1.00833	-144.997	11.8453	130.168	-120.572	5.20375	120.1	-99.3564	8.03368	101.535	-81.0271	8.23172	82.6349	-142.689	17.0463	53.6323	-129.714	14.9844	32.3584	-114.82	4.80199	7.90558	-156.069	1.74675	40.2169	-142.219	-0.638205	20.226	-127.592	-15.197	-3.22934	-168.906	-17.6398	43.2165	-156.852	-24.6392	18.8848	-138.517	-33.7399	-0.994292	-178.77	-35.3711	52.403	-168.519	-43.6852	30.7174	-154.667	-52.4205	11.036	-190.962	-9.3361	86.9121	-204.738	-11.2305	117.292	-179.333	15.5998	109.402	
122	1.01667	-148.064	9.31565	130.302	-119.999	6.60816	116.742	-95.5962	9.75391	100.003	-81.2669	9.19728	83.1281	-141.101	18.8402	52.0962	-128.869	16.1795	33.2245	-114.74	9.76024	12.1273	-156.463	2.73685	41.469	-141.215	-1.56422	18.2308	-121.817	-12.7433	-4.36322	-167.302	-16.8207	40.7062	-155.564	-23.6971	17.491	-138.927	-33.3082	0.0071612	-177.397	-35.3596	47.7333	-167.33	-42.0309	31.1221	-150.501	-48.5733	11.2725	-191.689	-10.6108	84.9879	-204.911	-8.55945	115.903	-176.783	16.5916	109.873	
123	1.025	-143.586	13.1076	128.721	-117.002	8.07199	115.06	-97.8094	8.27517	98.207	-80.5766	8.31783	86.2822	-139.426	20.2932	55.4477	-126.904	15.148	29.099	-110.384	7.14823	8.42458	-154.536	3.24926	41.8712	-142.189	-5.18702	17.0348	-121.897	-13.2917	-3.37632	-165.883	-14.5821	45.0993	-154.227	-23.9963	18.4099	-135.04	-32.7817	-1.22341	-176.618	-34.4579	53.3148	-164.546	-41.6549	30.6716	-154.174	-52.1839	10.79	-192.612	-10.9139	89.82	-201.066	-7.17929	114.509	-179.944	14.0517	110.053	
